Coordinates
version=1
nRows=13
nColumns=36
inDegrees=yes

Units are S.I. units (second, meters, Newtons, ...)
If the header above contains a line with 'inDegrees', this indicates whether rotational values are in degrees (yes) or radians (no).

endheader
time	pelvis_tilt	pelvis_list	pelvis_rotation	pelvis_tx	pelvis_ty	pelvis_tz	hip_flexion_r	hip_adduction_r	hip_rotation_r	knee_angle_r	knee_angle_r_beta	ankle_angle_r	subtalar_angle_r	mtp_angle_r	hip_flexion_l	hip_adduction_l	hip_rotation_l	knee_angle_l	knee_angle_l_beta	ankle_angle_l	subtalar_angle_l	mtp_angle_l	lumbar_extension	lumbar_bending	lumbar_rotation	arm_flex_r	arm_add_r	arm_rot_r	elbow_flex_r	pro_sup_r	arm_flex_l	arm_add_l	arm_rot_l	elbow_flex_l	pro_sup_l
      1.95000000	     -5.14156618	     -0.79371210	      3.61955180	      0.34113305	      0.96042092	     -0.08415175	      2.04919577	     -3.50590198	     -5.95075300	      6.55072147	      0.11433166	      1.71438080	    -14.22953170	     -7.49999987	      1.76836487	     -4.70338467	     -0.40875707	      2.37533119	      0.04145735	      1.12120814	     -5.03181669	     -7.49999987	      4.25587233	      2.48282562	      2.93618031	   -184.88331735	    -16.45945108	   -277.69190044	      1.38833774	     48.26194884	     48.03731794	    -55.40745686	    -26.63084238	     14.97695743	     82.50240387
      1.96666670	     -5.16797049	     -0.77509683	      3.52311819	      0.34105342	      0.96033179	     -0.08395123	      2.09665486	     -3.55069991	     -5.88700079	      6.53911589	      0.11412910	      1.56695203	    -14.28317259	     -7.49999987	      1.75798235	     -4.65566458	     -0.39697079	      2.39881588	      0.04186724	      1.11398926	     -5.08081051	     -7.49999987	      4.16706450	      2.62930314	      2.49922730	   -184.98436797	    -15.48632336	   -285.12439572	      1.59012143	     61.36660060	     45.20873880	    -55.34119995	    -32.62914495	     17.85164945	     83.17838329
      1.98333330	     -5.20134603	     -0.76384144	      3.42202172	      0.34122968	      0.96035915	     -0.08399038	      2.11827908	     -3.55626861	     -5.92575458	      6.52159931	      0.11382338	      1.40362345	    -14.26159629	     -7.49999987	      1.73943385	     -4.62568152	     -0.35325685	      2.40738804	      0.04201685	      1.09659171	     -5.14181774	     -7.49999987	      4.19958568	      2.58270266	      2.84782253	   -184.88011893	    -15.18548946	   -282.10247770	      1.61703677	     60.70786588	     45.52315099	    -54.97321591	    -33.23154798	     18.25805429	     81.80952413
      2.00000000	     -5.19878806	     -0.73860401	      3.27516782	      0.34105247	      0.95988227	     -0.08349905	      2.13280351	     -3.56139355	     -5.88484229	      6.47497082	      0.11300956	      1.39431090	    -14.00731242	     -7.49999987	      1.72472796	     -4.61824902	     -0.57730039	      2.43774773	      0.04254672	      1.16879265	     -4.98951564	     -7.49999987	      4.14727586	      2.48398755	      3.44887940	   -184.36821655	    -14.78840829	   -284.02871695	      1.62978351	     60.48932039	     46.79013919	    -54.67949780	    -32.30790417	     18.28278344	     83.70414006
      2.01666670	     -5.26465260	     -0.68860076	      3.24139513	      0.34118572	      0.95979291	     -0.08352740	      2.19269537	     -3.56722261	     -5.91140057	      6.45126804	      0.11259587	      1.30115234	    -13.80970732	     -7.49999987	      1.77629777	     -4.58757127	     -0.48244618	      2.44554320	      0.04268278	      0.98702796	     -5.07680710	     -7.49999987	      4.24571765	      2.34694817	      3.38608825	   -184.34570801	    -14.66678790	   -282.55973281	      1.51079203	     60.09553283	     47.04082800	    -54.68016901	    -33.24862241	     18.62692553	     82.08662353
      2.03333330	     -5.26113104	     -0.68184680	      3.17466922	      0.34115513	      0.95964619	     -0.08328955	      2.15710242	     -3.52795654	     -5.88297217	      6.37169300	      0.11120702	      1.51877360	    -13.40143950	     -7.49999987	      1.77251551	     -4.59715388	     -0.62871314	      2.45933279	      0.04292345	      1.10354325	     -4.87680198	     -7.49999987	      4.26153137	      2.24617547	      4.00534552	   -183.93346876	    -14.74747381	   -282.91095820	      1.47318296	     60.09911686	     48.81866048	    -54.25011965	    -30.88265091	     18.13676632	     84.11661975
      2.05000000	     -5.27891402	     -0.68149245	      3.23346602	      0.34127546	      0.95963790	     -0.08344582	      2.16779877	     -3.50508579	     -5.81858362	      6.36004358	      0.11100370	      1.62910274	    -13.33858253	     -7.49999987	      1.80047831	     -4.61054729	     -0.53996857	      2.42728712	      0.04236415	      1.00173383	     -4.93345247	     -7.49999987	      4.34272495	      2.22032771	      3.86281367	   -184.17796312	    -14.57783886	   -281.41674227	      1.38816959	     59.31439719	     49.10956721	    -54.24601896	    -30.53220140	     18.10270280	     82.81506371
      2.06666670	     -5.27635576	     -0.68943177	      3.23955588	      0.34106799	      0.95948362	     -0.08327553	      2.13756834	     -3.46893429	     -5.81272237	      6.31889367	      0.11028550	      1.79895776	    -13.04166478	     -7.49999987	      1.82369144	     -4.62817620	     -0.61996300	      2.42787472	      0.04237441	      1.02467794	     -4.77473864	     -7.49999987	      4.34069045	      2.14477609	      4.45365444	   -183.64074273	    -14.40046201	   -282.43546630	      1.45750067	     60.37850345	     50.55428417	    -53.62985688	    -29.74360342	     18.20874747	     84.55660339
      2.08333330	     -5.29362895	     -0.68737138	      3.27277832	      0.34114471	      0.95953432	     -0.08337300	      2.15419311	     -3.45914832	     -5.83021303	      6.31466309	      0.11021166	      1.89768607	    -12.92001997	     -7.49999987	      1.86798405	     -4.63965266	     -0.63765985	      2.40011610	      0.04188993	      0.99674846	     -4.81385123	     -7.49999987	      4.42588864	      2.08434150	      4.85621881	   -183.34532470	    -14.27814881	   -280.98033437	      1.46720662	     59.63637272	     51.73917679	    -53.05552277	    -28.82730979	     18.34827090	     84.75286545
      2.10000000	     -5.29195062	     -0.69370816	      3.24134829	      0.34098243	      0.95936547	     -0.08310718	      2.15683745	     -3.44392653	     -5.73545246	      6.29856174	      0.10993064	      1.95428943	    -12.88824854	     -7.49999987	      1.88234880	     -4.67416487	     -0.84526616	      2.36336475	      0.04124850	      1.05943427	     -4.72936515	     -7.49999987	      4.41099795	      2.01959976	      5.49237594	   -182.47649004	    -13.89468126	   -279.83343134	      1.55243300	     58.47076824	     53.20787830	    -52.58729485	    -27.46018816	     17.84060394	     84.62115253
      2.11666670	     -5.30198780	     -0.67762426	      3.21673099	      0.34115761	      0.95945072	     -0.08324074	      2.15410074	     -3.47194628	     -5.79697123	      6.27192995	      0.10946583	      2.00113666	    -12.71020023	     -7.49999987	      1.89450580	     -4.66609600	     -0.94178082	      2.33762499	      0.04079925	      1.08963560	     -4.69624335	     -7.49999987	      4.39243590	      1.99585261	      5.62516720	   -181.74201518	    -13.32622875	   -279.03569081	      1.58888909	     59.21138571	     53.34025148	    -52.58395422	    -27.87045183	     18.39288432	     85.28180434
      2.13333330	     -5.25351846	     -0.69451029	      3.12796154	      0.34100158	      0.95927887	     -0.08303300	      2.13631586	     -3.46388817	     -5.74790104	      6.30027848	      0.10996060	      2.04762630	    -12.55970105	     -7.49999987	      1.81818901	     -4.69285344	     -1.00608209	      2.28842407	      0.03994053	      1.06627060	     -4.81272902	     -7.49999987	      4.23748457	      2.01058367	      5.62893363	   -181.17358314	    -12.76068022	   -278.80319826	      1.65602753	     57.51815677	     53.53661524	    -52.70924917	    -28.48868465	     18.51343557	     85.10196112
      2.15000000	     -5.21305690	     -0.71742062	      3.07165148	      0.34109016	      0.95935956	     -0.08320733	      2.10390996	     -3.44546245	     -5.77154204	      6.33129916	      0.11050202	      2.14322811	    -12.42169591	     -7.49999987	      1.74593542	     -4.72456558	     -1.09034700	      2.25457240	      0.03934971	      1.10422271	     -4.79675439	     -7.49999987	      4.17722915	      2.09694750	      5.56532573	   -180.63220170	    -12.07245613	   -277.92640579	      1.64044587	     57.53173237	     53.03642119	    -52.80184789	    -29.23119931	     19.08065806	     85.58599612
